<svg width="32" height="32" viewBox="0 0 32 32" fill="none" xmlns="http://www.w3.org/2000/svg">
<path d="M24.8934 2.66699H22.36C19.4534 2.66699 17.92 4.20033 17.92 7.10699V9.64033C17.92 12.547 19.4534 14.0803 22.36 14.0803H24.8934C27.8 14.0803 29.3334 12.547 29.3334 9.64033V7.10699C29.3334 4.20033 27.8 2.66699 24.8934 2.66699Z" fill="#898583"/>
<path d="M9.65329 17.9062H7.11996C4.19996 17.9062 2.66663 19.4396 2.66663 22.3463V24.8796C2.66663 27.7996 4.19996 29.3329 7.10663 29.3329H9.63996C12.5466 29.3329 14.08 27.7996 14.08 24.8929V22.3596C14.0933 19.4396 12.56 17.9062 9.65329 17.9062Z" fill="#898583"/>
<path d="M8.38663 14.107C11.5457 14.107 14.1066 11.5461 14.1066 8.38699C14.1066 5.22792 11.5457 2.66699 8.38663 2.66699C5.22756 2.66699 2.66663 5.22792 2.66663 8.38699C2.66663 11.5461 5.22756 14.107 8.38663 14.107Z" fill="#898583"/>
<path d="M23.6133 29.3336C26.7724 29.3336 29.3333 26.7726 29.3333 23.6136C29.3333 20.4545 26.7724 17.8936 23.6133 17.8936C20.4542 17.8936 17.8933 20.4545 17.8933 23.6136C17.8933 26.7726 20.4542 29.3336 23.6133 29.3336Z" fill="#898583"/>
</svg>
