<svg width="24" height="24" viewBox="0 0 24 24" fill="none" xmlns="http://www.w3.org/2000/svg">
<path d="M8.04436 17C7.7789 17 7.51345 16.9022 7.30388 16.6926C6.89871 16.2875 6.89871 15.6168 7.30388 15.2117L15.2117 7.30388C15.6168 6.89871 16.2875 6.89871 16.6926 7.30388C17.0978 7.70905 17.0978 8.37967 16.6926 8.78484L8.78484 16.6926C8.58924 16.9022 8.30981 17 8.04436 17Z" fill="white"/>
<path d="M15.9521 17C15.6867 17 15.4212 16.9022 15.2117 16.6926L7.30388 8.78484C6.89871 8.37967 6.89871 7.70905 7.30388 7.30388C7.70905 6.89871 8.37967 6.89871 8.78484 7.30388L16.6926 15.2117C17.0978 15.6168 17.0978 16.2875 16.6926 16.6926C16.4831 16.9022 16.2176 17 15.9521 17Z" fill="white"/>
</svg>
