<svg width="32" height="32" viewBox="0 0 32 32" fill="none" xmlns="http://www.w3.org/2000/svg">
<path d="M21.0667 2.94633C20.52 2.39967 19.5734 2.773 19.5734 3.533V8.18633C19.5734 10.133 21.2267 11.7463 23.24 11.7463C24.5067 11.7597 26.2667 11.7597 27.7734 11.7597C28.5334 11.7597 28.9334 10.8663 28.4 10.333C26.48 8.39966 23.04 4.91967 21.0667 2.94633Z" fill="#898583"/>
<path d="M27.3334 13.587H23.48C20.32 13.587 17.7467 11.0137 17.7467 7.85366V4.00033C17.7467 3.26699 17.1467 2.66699 16.4134 2.66699H10.76C6.65337 2.66699 3.33337 5.33366 3.33337 10.0937V21.907C3.33337 26.667 6.65337 29.3337 10.76 29.3337H21.24C25.3467 29.3337 28.6667 26.667 28.6667 21.907V14.9203C28.6667 14.187 28.0667 13.587 27.3334 13.587ZM15.3334 23.667H10C9.45337 23.667 9.00004 23.2137 9.00004 22.667C9.00004 22.1203 9.45337 21.667 10 21.667H15.3334C15.88 21.667 16.3334 22.1203 16.3334 22.667C16.3334 23.2137 15.88 23.667 15.3334 23.667ZM18 18.3337H10C9.45337 18.3337 9.00004 17.8803 9.00004 17.3337C9.00004 16.787 9.45337 16.3337 10 16.3337H18C18.5467 16.3337 19 16.787 19 17.3337C19 17.8803 18.5467 18.3337 18 18.3337Z" fill="#898583"/>
</svg>
