<svg width="28" height="28" viewBox="0 0 28 28" fill="none" xmlns="http://www.w3.org/2000/svg">
<path d="M8.45836 11.1536C8.45836 11.3753 8.37669 11.5969 8.20169 11.7719L5.83336 14.1403L8.20169 16.5086C8.54003 16.8469 8.54003 17.4069 8.20169 17.7453C7.86336 18.0836 7.30336 18.0836 6.96503 17.7453L3.97836 14.7586C3.64003 14.4203 3.64003 13.8603 3.97836 13.5219L6.96502 10.5353C7.30336 10.1969 7.86336 10.1969 8.20169 10.5353C8.37669 10.7103 8.45836 10.9319 8.45836 11.1536Z" fill="#898583"/>
<path d="M17.4183 14.1396C17.4183 14.618 17.0217 15.0146 16.5433 15.0146L4.67834 15.0146C4.20001 15.0146 3.80334 14.618 3.80334 14.1396C3.80334 13.6613 4.20001 13.2646 4.67834 13.2646L16.5433 13.2646C17.0333 13.2646 17.4183 13.6613 17.4183 14.1396Z" fill="#898583"/>
<path d="M24.2083 13.9997C24.2083 20.008 20.0083 24.208 14 24.208C13.5217 24.208 13.125 23.8113 13.125 23.333C13.125 22.8547 13.5217 22.458 14 22.458C18.9817 22.458 22.4583 18.9813 22.4583 13.9997C22.4583 9.01801 18.9817 5.54134 14 5.54134C13.5217 5.54134 13.125 5.14467 13.125 4.66634C13.125 4.18801 13.5217 3.79134 14 3.79134C20.0083 3.79134 24.2083 7.99134 24.2083 13.9997Z" fill="#898583"/>
</svg>
