<svg width="38" height="38" viewBox="0 0 38 38" fill="none" xmlns="http://www.w3.org/2000/svg">
<rect width="38" height="38" rx="11.4" fill="white"/>
<path d="M27.2465 19.2031H24.1609C23.2919 19.2031 22.5205 19.6819 22.1304 20.4622L21.3856 21.9341C21.2083 22.2887 20.8536 22.5104 20.4635 22.5104H17.5552C17.2803 22.5104 16.8902 22.4483 16.6331 21.9341L15.8883 20.4711C15.4981 19.6997 14.7179 19.212 13.8578 19.212H10.7545C10.4087 19.212 10.1338 19.4869 10.1338 19.8327V22.7232C10.1338 25.9418 12.0667 27.8659 15.2942 27.8659H22.7245C25.7657 27.8659 27.6366 26.1989 27.8671 23.2375V19.8238C27.8671 19.4869 27.5923 19.2031 27.2465 19.2031Z" fill="#072E4C"/>
<path d="M19.6654 10.1337C19.6654 9.77022 19.364 9.46875 19.0004 9.46875C18.6369 9.46875 18.3354 9.77022 18.3354 10.1337V11.9071H19.6654V10.1337Z" fill="#072E4C"/>
<path d="M27.8671 17.0578V17.9799C27.6721 17.909 27.4593 17.8735 27.2465 17.8735H24.1609C22.7865 17.8735 21.5541 18.6361 20.9423 19.8597L20.2773 21.1719H17.7414L17.0764 19.8685C16.4646 18.636 15.2321 17.8735 13.8578 17.8735H10.7545C10.5417 17.8735 10.3289 17.909 10.1338 17.9799V17.0578C10.1338 13.8303 12.0579 11.9062 15.2853 11.9062H18.3355V14.7347L17.6971 14.0963C17.4399 13.8392 17.0143 13.8392 16.7572 14.0963C16.5001 14.3534 16.5001 14.7791 16.7572 15.0362L18.5305 16.8095C18.5394 16.8184 18.5483 16.8184 18.5483 16.8273C18.6103 16.8805 18.6724 16.9248 18.7433 16.9514C18.832 16.9868 18.9118 17.0046 19.0005 17.0046C19.0891 17.0046 19.1689 16.9868 19.2487 16.9514C19.3285 16.9248 19.4083 16.8716 19.4704 16.8095L21.2437 15.0362C21.5009 14.7791 21.5009 14.3534 21.2437 14.0963C20.9866 13.8392 20.561 13.8392 20.3039 14.0963L19.6655 14.7347V11.9062H22.7156C25.9431 11.9062 27.8671 13.8303 27.8671 17.0578Z" fill="#072E4C"/>
<rect x="22.4198" y="8.73914" width="6.84" height="6.84" rx="3.42" fill="#FF0A0A"/>
<rect x="22.4198" y="8.73914" width="6.84" height="6.84" rx="3.42" stroke="white" stroke-width="0.76"/>
</svg>
