<svg width="46" height="46" viewBox="0 0 46 46" fill="none" xmlns="http://www.w3.org/2000/svg">
<rect width="46" height="46" rx="23" fill="#B5D2E8"/>
<path d="M32.3 23.2305H28.82C27.84 23.2305 26.97 23.7705 26.53 24.6505L25.69 26.3105C25.49 26.7105 25.09 26.9605 24.65 26.9605H21.37C21.06 26.9605 20.62 26.8905 20.33 26.3105L19.49 24.6605C19.05 23.7905 18.17 23.2405 17.2 23.2405H13.7C13.31 23.2405 13 23.5505 13 23.9405V27.2005C13 30.8305 15.18 33.0005 18.82 33.0005H27.2C30.63 33.0005 32.74 31.1205 33 27.7805V23.9305C33 23.5505 32.69 23.2305 32.3 23.2305Z" fill="#072E4C"/>
<path d="M23.75 13C23.75 12.59 23.41 12.25 23 12.25C22.59 12.25 22.25 12.59 22.25 13V15H23.75V13Z" fill="#072E4C"/>
<path d="M33 20.812V21.852C32.78 21.772 32.54 21.732 32.3 21.732H28.82C27.27 21.732 25.88 22.592 25.19 23.972L24.44 25.452H21.58L20.83 23.982C20.14 22.592 18.75 21.732 17.2 21.732H13.7C13.46 21.732 13.22 21.772 13 21.852V20.812C13 17.172 15.17 15.002 18.81 15.002H22.25V18.192L21.53 17.472C21.24 17.182 20.76 17.182 20.47 17.472C20.18 17.762 20.18 18.242 20.47 18.532L22.47 20.532C22.48 20.542 22.49 20.542 22.49 20.552C22.56 20.612 22.63 20.662 22.71 20.692C22.81 20.732 22.9 20.752 23 20.752C23.1 20.752 23.19 20.732 23.28 20.692C23.37 20.662 23.46 20.602 23.53 20.532L25.53 18.532C25.82 18.242 25.82 17.762 25.53 17.472C25.24 17.182 24.76 17.182 24.47 17.472L23.75 18.192V15.002H27.19C30.83 15.002 33 17.172 33 20.812Z" fill="#072E4C"/>
</svg>
