<svg width="32" height="32" viewBox="0 0 32 32" fill="none" xmlns="http://www.w3.org/2000/svg">
<path d="M27.7734 10.6804L19.04 3.69368C17.3334 2.33368 14.6667 2.32035 12.9734 3.68035L4.24003 10.6804C2.9867 11.6804 2.2267 13.6803 2.49337 15.2537L4.17337 25.307C4.56003 27.5603 6.65337 29.3337 8.93336 29.3337H23.0667C25.32 29.3337 27.4534 27.5203 27.84 25.2937L29.52 15.2403C29.76 13.6803 29 11.6804 27.7734 10.6804ZM17 24.0003C17 24.547 16.5467 25.0003 16 25.0003C15.4534 25.0003 15 24.547 15 24.0003V20.0003C15 19.4537 15.4534 19.0003 16 19.0003C16.5467 19.0003 17 19.4537 17 20.0003V24.0003Z" fill="#898583"/>
</svg>
