<svg width="32" height="32" viewBox="0 0 32 32" fill="none" xmlns="http://www.w3.org/2000/svg">
<path d="M11.0533 8.38699C10.4933 8.38699 10.0533 7.93366 10.0533 7.38699V3.66699C10.0533 3.12033 10.4933 2.66699 11.0533 2.66699C11.6133 2.66699 12.0533 3.12033 12.0533 3.66699V7.37366C12.0533 7.93366 11.6133 8.38699 11.0533 8.38699Z" fill="#898583"/>
<path d="M20.9467 8.38699C20.3867 8.38699 19.9467 7.93366 19.9467 7.38699V3.66699C19.9467 3.10699 20.4 2.66699 20.9467 2.66699C21.5067 2.66699 21.9467 3.12033 21.9467 3.66699V7.37366C21.9467 7.93366 21.5067 8.38699 20.9467 8.38699Z" fill="#898583"/>
<path d="M26.0934 6.00033C25.2134 5.34699 23.9467 5.97366 23.9467 7.08033V7.21366C23.9467 8.77366 22.8267 10.2137 21.2667 10.3737C19.4667 10.5603 17.9467 9.14699 17.9467 7.38699V6.00033C17.9467 5.26699 17.3467 4.66699 16.6134 4.66699H15.3867C14.6534 4.66699 14.0534 5.26699 14.0534 6.00033V7.38699C14.0534 8.44033 13.5067 9.37366 12.68 9.89366C12.56 9.97366 12.4267 10.0403 12.2934 10.107C12.1734 10.1737 12.04 10.227 11.8934 10.267C11.7334 10.3203 11.56 10.3603 11.3734 10.3737C11.16 10.4003 10.9467 10.4003 10.7334 10.3737C10.5467 10.3603 10.3734 10.3203 10.2134 10.267C10.08 10.227 9.94671 10.1737 9.81337 10.107C9.68004 10.0403 9.54671 9.97366 9.42671 9.89366C8.58671 9.30699 8.05337 8.29366 8.05337 7.21366V7.08033C8.05337 6.05366 6.96004 5.44033 6.09337 5.88033C6.08004 5.89366 6.06671 5.89366 6.05337 5.90699C6.00004 5.93366 5.96004 5.96033 5.90671 6.00033C5.86671 6.04033 5.81337 6.06699 5.77337 6.10699C5.40004 6.40033 5.06671 6.73366 4.78671 7.09366C4.64004 7.25366 4.52004 7.42699 4.41337 7.60033C4.40004 7.61366 4.38671 7.62699 4.37337 7.65366C4.25337 7.82699 4.14671 8.02699 4.05337 8.21366C4.02671 8.24033 4.01337 8.25366 4.01337 8.28033C3.93337 8.44033 3.85337 8.60033 3.80004 8.77366C3.76004 8.84033 3.74671 8.89366 3.72004 8.96033C3.64004 9.16033 3.58671 9.36033 3.53337 9.56033C3.48004 9.74699 3.44004 9.94699 3.41337 10.147C3.38671 10.2937 3.37337 10.4403 3.36004 10.6003C3.34671 10.787 3.33337 10.9737 3.33337 11.1603V22.8403C3.33337 26.427 6.24004 29.3337 9.82671 29.3337H22.1734C25.76 29.3337 28.6667 26.427 28.6667 22.8403V11.1603C28.6667 9.04033 27.6534 7.18699 26.0934 6.00033ZM16 21.667H13.7467V24.0003C13.7467 24.547 13.2934 25.0003 12.7467 25.0003C12.1867 25.0003 11.7467 24.547 11.7467 24.0003V21.667H9.33337C8.78671 21.667 8.33337 21.2137 8.33337 20.667C8.33337 20.1203 8.78671 19.667 9.33337 19.667H11.7467V17.3337C11.7467 16.787 12.1867 16.3337 12.7467 16.3337C13.2934 16.3337 13.7467 16.787 13.7467 17.3337V19.667H16C16.5467 19.667 17 20.1203 17 20.667C17 21.2137 16.5467 21.667 16 21.667Z" fill="#898583"/>
</svg>
