<svg width="32" height="32" viewBox="0 0 32 32" fill="none" xmlns="http://www.w3.org/2000/svg">
<path d="M29.3333 3.66699H2.66663C2.11996 3.66699 1.66663 3.21366 1.66663 2.66699C1.66663 2.12033 2.11996 1.66699 2.66663 1.66699H29.3333C29.88 1.66699 30.3333 2.12033 30.3333 2.66699C30.3333 3.21366 29.88 3.66699 29.3333 3.66699Z" fill="#898583"/>
<path d="M22.2266 29.787C22.0533 30.1337 21.6933 30.3337 21.3333 30.3337C21.1866 30.3337 21.0266 30.2937 20.8933 30.227L16 27.787L11.1066 30.227C10.9733 30.2937 10.8133 30.3337 10.6666 30.3337C10.3066 30.3337 9.94664 30.1337 9.77331 29.787C9.51998 29.2803 9.71998 28.6803 10.2266 28.4403L15 26.0537V22.667H17V26.0537L21.7733 28.4403C22.28 28.6803 22.48 29.2803 22.2266 29.787Z" fill="#898583"/>
<path d="M4 2.66699V18.8003C4 21.3337 5.33333 22.667 7.86667 22.667H24.1333C26.6667 22.667 28 21.3337 28 18.8003V2.66699H4ZM22.64 11.4403L18.44 14.947C18.0533 15.267 17.56 15.4003 17.0933 15.3203C16.6133 15.2403 16.2 14.947 15.9467 14.5203L14.5467 12.187L10.64 15.4403C10.4533 15.6003 10.2267 15.667 10 15.667C9.72 15.667 9.42667 15.547 9.22667 15.307C8.86667 14.8803 8.93333 14.2537 9.36 13.8937L13.56 10.387C13.9467 10.067 14.44 9.93366 14.9067 10.0137C15.3867 10.0937 15.8 10.387 16.0533 10.8137L17.4533 13.147L21.36 9.89366C21.7867 9.53366 22.4133 9.60033 22.7733 10.027C23.12 10.4537 23.0667 11.0803 22.64 11.4403Z" fill="#898583"/>
</svg>
