<svg width="32" height="32" viewBox="0 0 32 32" fill="none" xmlns="http://www.w3.org/2000/svg">
<path d="M11.0533 8.38699C10.4933 8.38699 10.0533 7.93366 10.0533 7.38699V3.66699C10.0533 3.12033 10.4933 2.66699 11.0533 2.66699C11.6133 2.66699 12.0533 3.12033 12.0533 3.66699V7.37366C12.0533 7.93366 11.6133 8.38699 11.0533 8.38699Z" fill="#898583"/>
<path d="M20.9467 8.38699C20.3867 8.38699 19.9467 7.93366 19.9467 7.38699V3.66699C19.9467 3.10699 20.4 2.66699 20.9467 2.66699C21.5067 2.66699 21.9467 3.12033 21.9467 3.66699V7.37366C21.9467 7.93366 21.5067 8.38699 20.9467 8.38699Z" fill="#898583"/>
<path d="M28.6667 21.0936C28.6667 21.2936 28.6 21.4936 28.4267 21.6669C26.4933 23.6136 23.0533 27.0802 21.08 29.0669C20.9067 29.2536 20.68 29.3336 20.4533 29.3336C20.0133 29.3336 19.5867 28.9869 19.5867 28.4802V23.8136C19.5867 21.8669 21.24 20.2536 23.2667 20.2536C24.5333 20.2402 26.2933 20.2402 27.8 20.2402C28.32 20.2402 28.6667 20.6536 28.6667 21.0936Z" fill="#898583"/>
<path d="M28.6667 21.0936C28.6667 21.2936 28.6 21.4936 28.4267 21.6669C26.4933 23.6136 23.0533 27.0802 21.08 29.0669C20.9067 29.2536 20.68 29.3336 20.4533 29.3336C20.0133 29.3336 19.5867 28.9869 19.5867 28.4802V23.8136C19.5867 21.8669 21.24 20.2536 23.2667 20.2536C24.5333 20.2402 26.2933 20.2402 27.8 20.2402C28.32 20.2402 28.6667 20.6536 28.6667 21.0936Z" fill="#898583"/>
<path d="M26.0934 6.00033C25.2134 5.34699 23.9467 5.97366 23.9467 7.08033V7.21366C23.9467 8.77366 22.8267 10.2137 21.2667 10.3737C19.4667 10.5603 17.9467 9.14699 17.9467 7.38699V6.00033C17.9467 5.26699 17.3467 4.66699 16.6134 4.66699H15.3867C14.6534 4.66699 14.0534 5.26699 14.0534 6.00033V7.21366C14.0534 8.38699 13.4267 9.48033 12.4534 10.0137C12.4 10.0537 12.3467 10.0803 12.2934 10.107C12.28 10.107 12.28 10.1203 12.2667 10.1203C12.1734 10.1603 12.08 10.2003 11.9734 10.2403C11.9467 10.2537 11.92 10.2537 11.8934 10.267C11.7334 10.3203 11.56 10.3603 11.3734 10.3737H11.36C11.16 10.4003 10.9467 10.4003 10.7467 10.3737H10.7334C10.5467 10.3603 10.3734 10.3203 10.2134 10.267C10.08 10.227 9.94671 10.1737 9.81337 10.107C8.77337 9.64033 8.05337 8.60033 8.05337 7.38699V7.08033C8.05337 6.05366 6.96004 5.44033 6.09337 5.88033C6.08004 5.89366 6.06671 5.89366 6.05337 5.90699H6.04004C5.94671 5.97366 5.86671 6.04033 5.77337 6.10699C5.62671 6.22699 5.48004 6.34699 5.34671 6.48033C5.25337 6.57366 5.16004 6.66699 5.08004 6.76033C4.97337 6.86699 4.88004 6.97366 4.78671 7.09366C4.72004 7.17366 4.64004 7.25366 4.58671 7.34699C4.52004 7.42699 4.46671 7.52033 4.41337 7.60033C4.40004 7.61366 4.38671 7.62699 4.37337 7.65366C4.25337 7.82699 4.14671 8.02699 4.05337 8.21366C4.02671 8.24033 4.01337 8.25366 4.01337 8.28033C3.93337 8.44033 3.85337 8.60033 3.80004 8.77366C3.76004 8.84033 3.74671 8.89366 3.72004 8.96033C3.69337 9.01366 3.68004 9.08033 3.65337 9.13366C3.61337 9.26699 3.57337 9.41366 3.53337 9.56033C3.48004 9.74699 3.44004 9.94699 3.41337 10.147C3.38671 10.2937 3.37337 10.4403 3.36004 10.6003C3.34671 10.787 3.33337 10.9737 3.33337 11.1603V22.8403C3.33337 26.427 6.24004 29.3337 9.82671 29.3337H16.2534C16.9867 29.3337 17.5867 28.7337 17.5867 28.0003V23.8137C17.5867 20.747 20.1334 18.2537 23.2667 18.2537C23.9734 18.2403 25.6934 18.2403 27.3334 18.2403C28.0667 18.2403 28.6667 17.6403 28.6667 16.907V11.1603C28.6667 9.04033 27.6534 7.18699 26.0934 6.00033ZM14.84 21.2137C14.72 21.6137 14.3467 21.8937 13.9067 21.8937H9.05337C8.98671 21.8937 8.93337 21.8937 8.88004 21.867C8.40004 21.8003 8.05337 21.387 8.05337 20.8937C8.05337 20.3337 8.49337 19.8803 9.05337 19.8803H13.9067C14.4534 19.8803 14.9067 20.3337 14.9067 20.8937C14.9067 21.0003 14.8934 21.1203 14.84 21.2137ZM18.5467 16.267C18.4267 16.667 18.0534 16.947 17.6134 16.947H9.05337C8.98671 16.947 8.93337 16.947 8.88004 16.9203C8.40004 16.8537 8.05337 16.4403 8.05337 15.947C8.05337 15.387 8.49337 14.9337 9.05337 14.9337H17.6134C18.1734 14.9337 18.6134 15.387 18.6134 15.947C18.6134 16.0537 18.6 16.1737 18.5467 16.267Z" fill="#898583"/>
</svg>
