<svg width="32" height="32" viewBox="0 0 32 32" fill="none" xmlns="http://www.w3.org/2000/svg">
<path d="M26.0133 7.80033L18.0933 3.22699C16.8 2.48033 15.2 2.48033 13.8933 3.22699L5.98664 7.80033C4.69331 8.54699 3.89331 9.93366 3.89331 11.4403V20.5603C3.89331 22.0537 4.69331 23.4403 5.98664 24.2003L13.9066 28.7737C15.2 29.5203 16.8 29.5203 18.1066 28.7737L26.0266 24.2003C27.32 23.4537 28.12 22.067 28.12 20.5603V11.4403C28.1066 9.93366 27.3066 8.56033 26.0133 7.80033ZM16 9.78699C17.72 9.78699 19.1066 11.1737 19.1066 12.8937C19.1066 14.6137 17.72 16.0003 16 16.0003C14.28 16.0003 12.8933 14.6137 12.8933 12.8937C12.8933 11.187 14.28 9.78699 16 9.78699ZM19.5733 22.2137H12.4266C11.3466 22.2137 10.72 21.0137 11.32 20.1203C12.2266 18.7737 13.9866 17.867 16 17.867C18.0133 17.867 19.7733 18.7737 20.68 20.1203C21.28 21.0003 20.64 22.2137 19.5733 22.2137Z" fill="#898583"/>
</svg>
