<svg width="34" height="34" viewBox="0 0 34 34" fill="none" xmlns="http://www.w3.org/2000/svg">
<path d="M12.9906 22.0717C12.7214 22.0717 12.4523 21.9725 12.2398 21.76C11.8289 21.3492 11.8289 20.6692 12.2398 20.2583L20.2581 12.24C20.6689 11.8292 21.3489 11.8292 21.7598 12.24C22.1706 12.6508 22.1706 13.3308 21.7598 13.7417L13.7414 21.76C13.5431 21.9725 13.2598 22.0717 12.9906 22.0717Z" fill="#F06132"/>
<path d="M21.0089 22.0717C20.7398 22.0717 20.4706 21.9725 20.2581 21.76L12.2398 13.7417C11.8289 13.3308 11.8289 12.6508 12.2398 12.24C12.6506 11.8292 13.3306 11.8292 13.7414 12.24L21.7598 20.2583C22.1706 20.6692 22.1706 21.3492 21.7598 21.76C21.5473 21.9725 21.2781 22.0717 21.0089 22.0717Z" fill="#F06132"/>
<path d="M21.2507 32.2292H12.7507C5.05815 32.2292 1.77148 28.9425 1.77148 21.25V12.75C1.77148 5.05751 5.05815 1.77084 12.7507 1.77084H21.2507C28.9432 1.77084 32.2298 5.05751 32.2298 12.75V21.25C32.2298 28.9425 28.9432 32.2292 21.2507 32.2292ZM12.7507 3.89584C6.21982 3.89584 3.89648 6.21918 3.89648 12.75V21.25C3.89648 27.7808 6.21982 30.1042 12.7507 30.1042H21.2507C27.7815 30.1042 30.1048 27.7808 30.1048 21.25V12.75C30.1048 6.21918 27.7815 3.89584 21.2507 3.89584H12.7507Z" fill="#F06132"/>
</svg>
